PathFileType	4	(x/y/z)	A01_PREF_T0018.trc
DataRate	CameraRate	NumFrames	NumMarkers	Units	OrigDataRate	OrigDataStartFrame	OrigNumFrames
240	240	10	48	mm	240	194	310
Frame#	Time	TOP_HEAD			R_AC			L_AC			R_ASIS			L_ASIS			R_PSIS			L_PSIS			SACRAL			L_IC			R_IC			L_GT			R_GT			R_LAT_KNEE			R_MED_KNEE			L_MED_KNEE			L_LAT_KNEE			R_TOE			L_TOE			R_1ST_MET			L_1ST_MET			L_5TH_MET			R_5TH_MET			R_LAT_ANK			R_MED_ANK			L_MED_ANK			L_LAT_ANK			L_HEEL_SUP			R_HEEL_SUP			L_HEEL_LAT			R_HEEL_LAT			L_HEEL_MED			R_HEEL_MED			R_LL_PROX_POST			R_LL_PROX_ANT			R_LL_DIST_ANT			R_LL_DIST_POST			R_THIGH_PROX_POST			R_THIGH_PROX_ANT			R_THIGH_DIST_ANT			R_THIGH_DIST_POST			L_PROS_PROX_ANT			L_PROS_PROX_POST			L_PROS_DIST_POST			L_PROS_DIST_ANT			L_THIGH_PROX_ANT			L_THIGH_PROX_POST			L_THIGH_DIST_POST			L_THIGH_DIST_ANT			
		X1	Y1	Z1	X2	Y2	Z2	X3	Y3	Z3	X4	Y4	Z4	X5	Y5	Z5	X6	Y6	Z6	X7	Y7	Z7	X8	Y8	Z8	X9	Y9	Z9	X10	Y10	Z10	X11	Y11	Z11	X12	Y12	Z12	X13	Y13	Z13	X14	Y14	Z14	X15	Y15	Z15	X16	Y16	Z16	X17	Y17	Z17	X18	Y18	Z18	X19	Y19	Z19	X20	Y20	Z20	X21	Y21	Z21	X22	Y22	Z22	X23	Y23	Z23	X24	Y24	Z24	X25	Y25	Z25	X26	Y26	Z26	X27	Y27	Z27	X28	Y28	Z28	X29	Y29	Z29	X30	Y30	Z30	X31	Y31	Z31	X32	Y32	Z32	X33	Y33	Z33	X34	Y34	Z34	X35	Y35	Z35	X36	Y36	Z36	X37	Y37	Z37	X38	Y38	Z38	X39	Y39	Z39	X40	Y40	Z40	X41	Y41	Z41	X42	Y42	Z42	X43	Y43	Z43	X44	Y44	Z44	X45	Y45	Z45	X46	Y46	Z46	X47	Y47	Z47	X48	Y48	Z48	

194	0.80677	500.29	1712.6	346.39	283.64	1515.7	595.72	244.77	1530.6	140.35	260.97	1073	567.99	244.06	991.63	219.51	38.433	1060.1	456.48	43.224	1059.6	322.99	24.824	1029.9	390.3	220.99	1120.5	178.07	229.43	1156	582.12	175.48	914.58	181.94	215.34	959.95	614.64	342.1	567.14	547.3	368.56	575.16	417.19	197.55	485.66	368.19	165.74	530.71	219.94	582.04	77.676	451.32	-125.38	75.678	249.87	499.09	57.628	404.28	-183.6	115.4	321.23	-226.79	154.52	205.69	471.93	45.959	538.75	351.1	103.32	512.17	359.34	111.52	409.6	-188.64	267.74	331.82	-222.74	295.81	273.04	-303.71	327.3	334.06	253.52	66.253	454.55	-328.52	310.59	302.75	262.06	43.427	489.14	-313.99	291.94	362.96	265.96	40.054	429.34	269.74	382.96	550.94	341.1	380.04	566.22	349.99	306.74	547.66	294.57	303.97	538.99	222.52	810.29	595.1	281.87	850.58	602.25	314.09	765.86	591.01	256.18	728.09	581.41	128.69	443.59	225.11	94.469	487.89	225.23	41.861	453.88	237.06	80.346	415.19	234.57	230.24	770.95	210.41	160.29	780.13	197.05	168.88	704.17	203.39	232.29	696.9	215.4
195	0.81095	505.9	1713.5	346.66	289.78	1516.4	595.98	250.09	1531.1	140.62	266.64	1073.1	568.92	250.16	992.68	220.09	44.157	1060.5	457.04	48.993	1059.9	323.55	30.654	1030.3	390.81	226.64	1121.2	178.47	235.46	1156.6	582.24	182.07	915.45	182.31	220.64	959.9	615.22	345.91	566.98	547.6	372.49	575	417.41	208.85	485.69	367.72	176.27	532.12	220.02	582.42	76.786	451.29	-117.59	78.413	248.07	499.35	57.334	404.19	-174.96	118.14	320.25	-218.76	158.69	205.38	472.05	45.81	538.85	351.61	103.46	511.94	359.78	111.46	409.33	-179.06	270.45	332.2	-213.31	299.2	273.83	-293.26	331.07	335.82	253.78	66.598	454.52	-318.48	314.82	304.56	262.23	43.743	489.11	-303.64	295.56	364.54	266.14	40.391	429.3	272.22	383.37	550.82	343.58	379.97	566.13	352.01	306.63	547.46	296.58	304.23	538.73	227.09	810.47	595.33	286.67	850.45	602.81	318.53	765.58	591.61	260.48	728.11	581.72	138.73	445.16	224.77	104.78	489.7	225.45	52.043	455.92	237.36	90.262	417	234.3	238.26	772.09	210.53	168.24	780.64	197.18	177.54	704.79	203.37	240.99	698.05	215.39
196	0.81513	511.5	1714.4	346.9	295.89	1517.2	596.23	255.35	1531.6	140.84	272.31	1073.2	569.82	256.21	993.77	220.63	49.861	1061	457.6	54.719	1060.3	324.12	36.455	1030.7	391.33	232.22	1121.8	178.87	241.51	1157.2	582.35	188.59	916.39	182.66	225.93	959.9	615.76	349.65	566.84	547.87	376.33	574.85	417.63	220.1	485.86	367.26	186.77	533.64	220.1	582.78	75.98	451.25	-109.41	81.16	246.25	499.59	57.093	404.1	-165.98	120.75	319.24	-210.4	162.65	205.03	472.16	45.703	538.94	352.09	103.61	511.72	360.2	111.42	409.06	-169.31	272.97	332.54	-203.71	302.37	274.56	-282.76	334.48	337.49	254.03	66.941	454.49	-308.35	318.64	306.29	262.39	44.055	489.09	-293.19	298.82	366.04	266.31	40.726	429.26	274.63	383.79	550.68	345.97	379.92	566.04	353.94	306.55	547.25	298.51	304.51	538.47	231.64	810.7	595.55	291.44	850.37	603.33	322.95	765.35	592.15	264.76	728.19	582.01	148.8	446.82	224.43	115.1	491.57	225.68	62.257	457.98	237.66	100.24	418.85	234.04	246.25	773.31	210.65	176.15	781.24	197.29	186.16	705.49	203.34	249.66	699.29	215.39
197	0.81931	517.09	1715.4	347.12	301.96	1518.1	596.47	260.57	1532.1	141.03	277.97	1073.3	570.67	262.21	994.9	221.14	55.544	1061.5	458.15	60.402	1060.8	324.69	42.226	1031.2	391.85	237.76	1122.4	179.26	247.57	1157.8	582.47	195.05	917.39	182.97	231.22	959.95	616.26	353.33	566.73	548.11	380.1	574.7	417.84	231.3	486.18	366.81	197.23	535.25	220.19	583.12	75.25	451.21	-100.83	83.878	244.42	499.81	56.899	404.01	-156.66	123.23	318.2	-201.73	166.38	204.64	472.25	45.63	539	352.55	103.77	511.51	360.6	111.4	408.8	-159.39	275.31	332.81	-193.94	305.32	275.23	-272.2	337.54	339.07	254.27	67.282	454.46	-298.13	322.08	307.93	262.55	44.366	489.06	-282.63	301.72	367.43	266.46	41.061	429.2	276.97	384.22	550.53	348.29	379.89	565.94	355.82	306.48	547.06	300.38	304.8	538.21	236.18	810.97	595.77	296.17	850.34	603.79	327.34	765.17	592.64	269.02	728.31	582.29	158.9	448.56	224.1	125.41	493.47	225.9	72.501	460.03	237.94	110.27	420.74	233.78	254.19	774.61	210.77	184.03	781.92	197.38	194.75	706.28	203.31	258.28	700.61	215.4
198	0.82349	522.67	1716.4	347.3	308	1519	596.69	265.75	1532.7	141.19	283.64	1073.5	571.47	268.16	996.06	221.61	61.206	1062.1	458.68	66.044	1061.3	325.26	47.966	1031.7	392.36	243.25	1123	179.65	253.64	1158.5	582.59	201.44	918.44	183.26	236.5	960.08	616.72	356.94	566.63	548.33	383.81	574.56	418.05	242.43	486.65	366.38	207.66	536.94	220.28	583.44	74.588	451.17	-91.884	86.528	242.61	500.01	56.745	403.92	-147.03	125.54	317.15	-192.76	169.85	204.21	472.33	45.585	539.06	352.99	103.94	511.32	360.97	111.41	408.54	-149.3	277.47	333.03	-184.01	308.04	275.83	-261.59	340.25	340.52	254.5	67.625	454.43	-287.81	325.13	309.44	262.7	44.677	489.03	-271.98	304.26	368.7	266.59	41.398	429.14	279.24	384.66	550.39	350.54	379.88	565.84	357.63	306.45	546.87	302.18	305.12	537.97	240.72	811.3	595.97	300.88	850.36	604.21	331.7	765.05	593.1	273.25	728.49	582.56	169.04	450.34	223.79	135.72	495.4	226.12	82.773	462.07	238.19	120.36	422.64	233.52	262.1	775.99	210.9	191.9	782.68	197.45	203.29	707.14	203.28	266.88	702.02	215.41
199	0.82767	528.23	1717.4	347.46	313.99	1519.9	596.91	270.9	1533.2	141.31	289.3	1073.8	572.21	274.06	997.27	222.05	66.848	1062.7	459.2	71.646	1061.8	325.81	53.677	1032.2	392.85	248.69	1123.6	180.04	259.7	1159.2	582.72	207.77	919.54	183.53	241.78	960.29	617.14	360.46	566.56	548.52	387.46	574.43	418.27	253.49	487.27	365.97	218.06	538.7	220.36	583.74	73.989	451.14	-82.572	89.073	240.83	500.21	56.625	403.85	-137.11	127.68	316.1	-183.49	173.05	203.75	472.4	45.562	539.1	353.42	104.11	511.15	361.31	111.43	408.31	-139.05	279.43	333.18	-173.93	310.52	276.36	-250.93	342.62	341.85	254.72	67.969	454.4	-277.41	327.79	310.82	262.84	44.989	489	-261.25	306.47	369.85	266.71	41.739	429.07	281.46	385.12	550.26	352.74	379.89	565.75	359.39	306.43	546.69	303.93	305.45	537.74	245.24	811.69	596.17	305.55	850.44	604.59	336.03	764.98	593.5	277.45	728.72	582.81	179.22	452.18	223.48	146.03	497.33	226.32	93.07	464.09	238.42	130.52	424.55	233.27	269.98	777.44	211.03	199.75	783.51	197.5	211.82	708.08	203.25	275.45	703.51	215.44
200	0.83185	533.77	1718.4	347.58	319.95	1520.9	597.11	276.02	1533.8	141.41	294.96	1074.1	572.9	279.91	998.5	222.44	72.469	1063.5	459.69	77.21	1062.4	326.35	59.357	1032.9	393.33	254.09	1124.2	180.43	265.77	1160	582.87	214.04	920.69	183.76	247.05	960.58	617.51	363.9	566.51	548.7	391.07	574.29	418.5	264.48	488.05	365.58	228.42	540.53	220.44	584.02	73.446	451.1	-72.91	91.482	239.13	500.38	56.533	403.78	-126.92	129.63	315.07	-173.91	175.95	203.28	472.46	45.555	539.14	353.83	104.29	510.99	361.64	111.48	408.09	-128.66	281.19	333.28	-163.7	312.74	276.81	-240.21	344.66	343.04	254.94	68.317	454.38	-266.91	330.08	312.06	262.97	45.304	488.97	-250.44	308.34	370.86	266.81	42.084	428.99	283.63	385.59	550.15	354.89	379.92	565.66	361.11	306.44	546.52	305.63	305.79	537.54	249.75	812.12	596.36	310.2	850.57	604.92	340.33	764.96	593.87	281.63	729.01	583.05	189.44	454.05	223.19	156.34	499.27	226.51	103.39	466.06	238.62	140.73	426.46	233.03	277.84	778.97	211.17	207.59	784.42	197.53	220.32	709.09	203.23	284	705.07	215.47
201	0.83603	539.3	1719.5	347.68	325.86	1521.9	597.3	281.12	1534.4	141.48	300.61	1074.4	573.53	285.71	999.77	222.8	78.071	1064.3	460.16	82.738	1063.1	326.88	65.009	1033.6	393.78	259.45	1124.9	180.82	271.82	1160.8	583.03	220.24	921.88	183.98	252.32	960.95	617.84	367.24	566.47	548.86	394.63	574.16	418.74	275.39	488.98	365.21	238.75	542.4	220.51	584.29	72.955	451.07	-62.907	93.729	237.5	500.55	56.465	403.72	-116.46	131.38	314.08	-164.05	178.54	202.79	472.52	45.561	539.16	354.23	104.48	510.85	361.95	111.54	407.88	-118.13	282.77	333.32	-153.34	314.7	277.18	-229.44	346.37	344.07	255.16	68.669	454.35	-256.33	332	313.15	263.11	45.622	488.95	-239.56	309.89	371.71	266.9	42.436	428.9	285.76	386.06	550.07	356.99	379.98	565.59	362.79	306.48	546.37	307.28	306.15	537.38	254.24	812.61	596.54	314.82	850.74	605.21	344.59	764.99	594.2	285.78	729.35	583.27	199.7	455.94	222.9	166.65	501.2	226.67	113.73	467.99	238.79	150.99	428.35	232.79	285.67	780.57	211.31	215.41	785.38	197.54	228.8	710.16	203.2	292.53	706.71	215.52
202	0.84021	544.81	1720.7	347.75	331.73	1523	597.49	286.21	1535	141.53	306.27	1074.8	574.09	291.46	1001.1	223.13	83.652	1065.1	460.59	88.233	1063.8	327.38	70.632	1034.4	394.21	264.77	1125.5	181.2	277.85	1161.6	583.21	226.38	923.11	184.18	257.59	961.41	618.13	370.49	566.46	549.01	398.15	574.03	418.98	286.22	490.06	364.87	249.05	544.31	220.57	584.54	72.508	451.03	-52.569	95.792	235.98	500.7	56.414	403.66	-105.75	132.92	313.12	-153.89	180.82	202.28	472.57	45.576	539.17	354.62	104.68	510.72	362.25	111.62	407.7	-107.46	284.14	333.29	-142.84	316.41	277.45	-218.62	347.76	344.95	255.37	69.026	454.33	-245.65	333.56	314.06	263.24	45.944	488.92	-228.61	311.12	372.42	266.98	42.796	428.81	287.84	386.55	550.02	359.05	380.05	565.52	364.43	306.54	546.22	308.88	306.53	537.25	258.71	813.15	596.7	319.41	850.96	605.47	348.81	765.07	594.5	289.89	729.74	583.47	209.99	457.84	222.64	176.96	503.11	226.81	124.09	469.86	238.92	161.32	430.22	232.55	293.48	782.23	211.46	223.23	786.41	197.54	237.26	711.3	203.18	301.05	708.42	215.57
203	0.84439	550.31	1721.8	347.8	337.56	1524.2	597.66	291.29	1535.7	141.57	311.92	1075.3	574.6	297.15	1002.4	223.42	89.214	1066.1	461	93.698	1064.6	327.87	76.229	1035.3	394.61	270.06	1126.2	181.57	283.87	1162.5	583.41	232.47	924.37	184.36	262.85	961.94	618.38	373.63	566.46	549.14	401.61	573.89	419.23	296.95	491.3	364.56	259.32	546.25	220.61	584.78	72.103	451.01	-41.904	97.655	234.57	500.84	56.378	403.62	-94.806	134.25	312.22	-143.45	182.76	201.78	472.62	45.597	539.18	355	104.89	510.62	362.54	111.72	407.53	-96.671	285.32	333.21	-132.22	317.85	277.64	-207.76	348.85	345.66	255.58	69.39	454.32	-234.9	334.77	314.8	263.36	46.274	488.9	-217.61	312.05	372.96	267.04	43.163	428.7	289.89	387.05	550.01	361.07	380.15	565.46	366.04	306.62	546.09	310.45	306.92	537.15	263.15	813.73	596.85	323.97	851.22	605.7	352.99	765.18	594.76	293.97	730.18	583.66	220.32	459.74	222.38	187.26	504.99	226.91	134.46	471.66	239.01	171.7	432.05	232.32	301.28	783.95	211.61	231.04	787.5	197.52	245.72	712.5	203.16	309.56	710.2	215.64
